{"title":"A Lady Without Camelias 1953 BluRay 1080p x264 DTS","uid":6513353,"size":10346265487,"categoryP":"video","categoryS":"hd___movies","magnet":"?xt=urn:btih:edfce34aad1b0bcb8b0ec33efd8845daac5d6dd4&amp;dn=A+Lady+Without+Camelias+1953+BluRay+1080p+x264+DTS&amp;tr=udp%3A%2F%2Ftracker.openbittorrent.com%3A80&amp;tr=udp%3A%2F%2Fopen.demonii.com%3A1337&amp;tr=udp%3A%2F%2Ftracker.coppersurfer.tk%3A6969&amp;tr=udp%3A%2F%2Fexodus.desync.com%3A6969","seeders":0,"leechers":1,"uploader":"TPBAgri","files":-1,"time":1309722387,"description":"Name: A lady without Camellias\nOriginal title: La signora senza camelie (The Lady Without Camelias)\nReleased: 1953\nCountry: France, Italy\nGenre: drama\nDirector: Michelangelo Antonioni / Michelangelo Antonioni\nCast: Lucia Bose, Gino Worms, Andrea Kekki, Ivan Gums, Monica Clay, Alain Cuny, Anna Karen, Enrico Glori, Laura Tiberti, Oscar Andriana, Gisella Sofio, Elio Steiner, Luisa Rivelli, Nino Dal Fabbri, Emma Dretti, Rita Giannuzzi, Rita Mara, Lila Rocco, Nuri Neva Sangro, Xenia Walder\n\nAbout movie: The central character - a film producer. Turning saleswoman in a movie star, he completes the act, giving her in marriage. Twisted in the clouds, the heroine of her husband's demands that he shot her in the role of stars in the &quot;high cinema&quot; rather than in through-erotic films as before. When the film fails to be falling apart and the marriage.\n\nFile info:\nQuality: BDRip 1080p\nDuration: 1:41:33\nAudio: Russian ;  Italian track\nSubtitles: Russian, English\nFormat: MKV\n\nVideo: MPEG-4 AVC, 12.9 Mbps, 1440x1080p, 24 fps, 4:3, High Profile 4.1\nAudio 1: Dolby Digital 2.0, 48 kHz, 192 kbps\nAudio 2: DTS 2.0, 48 kHz, 512 kbps, 16-bit\n\n\nFormat / Info: Advanced Video Codec\nFormat profile: &lt;a class=&quot;__cf_email__&quot; href=&quot;/cdn-cgi/l/email-protection&quot; data-cfemail=&quot;652d0c020d2529514b54&quot;&gt;[email&amp;#160;protected]&lt;/a&gt;&lt;script cf-hash='f9e31' type=&quot;text/javascript&quot;&gt;\n/* &lt;![CDATA[ */!function(){try{var t=&quot;currentScript&quot;in document?document.currentScript:function(){for(var t=document.getElementsByTagName(&quot;script&quot;),e=t.length;e--;)if(t[e].getAttribute(&quot;cf-hash&quot;))return t[e]}();if(t&amp;&amp;t.previousSibling){var e,r,n,i,c=t.previousSibling,a=c.getAttribute(&quot;data-cfemail&quot;);if(a){for(e=&quot;&quot;,r=parseInt(a.substr(0,2),16),n=2;a.length-n;n+=2)i=parseInt(a.substr(n,2),16)^r,e+=String.fromCharCode(i);e=document.createTextNode(e),c.parentNode.replaceChild(e,c)}}}catch(u){}}();/* ]]&gt; */&lt;/script&gt;\nFormat settings, CABAC: Yes\nFormat settings, ReFrames: 5 frames\nMuxing mode: Container profile = &lt;a class=&quot;__cf_email__&quot; href=&quot;/cdn-cgi/l/email-protection&quot; data-cfemail=&quot;8edbe0e5e0e1f9e0cebaa0bf&quot;&gt;[email&amp;#160;protected]&lt;/a&gt;&lt;script cf-hash='f9e31' type=&quot;text/javascript&quot;&gt;\n/* &lt;![CDATA[ */!function(){try{var t=&quot;currentScript&quot;in document?document.currentScript:function(){for(var t=document.getElementsByTagName(&quot;script&quot;),e=t.length;e--;)if(t[e].getAttribute(&quot;cf-hash&quot;))return t[e]}();if(t&amp;&amp;t.previousSibling){var e,r,n,i,c=t.previousSibling,a=c.getAttribute(&quot;data-cfemail&quot;);if(a){for(e=&quot;&quot;,r=parseInt(a.substr(0,2),16),n=2;a.length-n;n+=2)i=parseInt(a.substr(n,2),16)^r,e+=String.fromCharCode(i);e=document.createTextNode(e),c.parentNode.replaceChild(e,c)}}}catch(u){}}();/* ]]&gt; */&lt;/script&gt;\nCodec ID: V_MPEG4/ISO/AVC\nDuration: 1h 41mn\nBit rate: 12.9 Mbps\nWidth: 1440 pixels\nHeight: 1080 pixels\nDisplay aspect ratio: 4:3\nFrame rate: 24.000 fps\n\nAudio # 1\nID: 2\nFormat: AC-3\nFormat / Info: Audio Coding 3\nMode extension: CM (complete main)\nCodec ID: A_AC3\nDuration: 1h 41mn\nBit rate mode: Constant\nBit rate: 192 Kbps\nChannel (s): 2 channels\nChannel positions: Front: L R\nSampling rate: 48.0 KHz\nBit depth: 16 bits\nStream size: 139 MiB (1%)\nTitle: VO (renege79)\nLanguage: Russian\n\nAudio # 2\nID: 3\nFormat: DTS\nFormat / Info: Digital Theater Systems\nCodec ID: A_DTS\nDuration: 1h 41mn\nBit rate mode: Constant\nBit rate: 512 Kbps\nChannel (s): 2 channels\nChannel positions: Front: L R\nSampling rate: 48.0 KHz\nBit depth: 24 bits\nStream size: 372 MiB (4%)\nTitle: Original\nLanguage: Italian","torrent":{"xt":"urn:btih:edfce34aad1b0bcb8b0ec33efd8845daac5d6dd4","amp;dn":"A+Lady+Without+Camelias+1953+BluRay+1080p+x264+DTS","amp;tr":["udp%3A%2F%2Ftracker.openbittorrent.com%3A80","udp%3A%2F%2Fopen.demonii.com%3A1337","udp%3A%2F%2Ftracker.coppersurfer.tk%3A6969","udp%3A%2F%2Fexodus.desync.com%3A6969"],"infoHash":"edfce34aad1b0bcb8b0ec33efd8845daac5d6dd4","infoHashBuffer":{"type":"Buffer","data":[237,252,227,74,173,27,11,203,139,14,195,62,253,136,69,218,172,93,109,212]},"announce":[],"urlList":[]}}